<svg xmlns="http://www.w3.org/2000/svg" width="88" height="88" viewBox="0 0 88 88">
    <defs>
        <style>
            .cls-1,.cls-2{fill:#fff}.cls-1{opacity:0}
        </style>
    </defs>
    <g id="logo_white" transform="translate(44 44)">
        <g id="logo_white-2" data-name="logo_white" transform="translate(-44 -44)">
            <path id="Rectangle_496" d="M0 0h88v88H0z" class="cls-1" data-name="Rectangle 496"/>
            <g id="Group_522" data-name="Group 522" transform="translate(6.364 7.235)">
                <path id="Path_1233" d="M56.9 45.03a33.864 33.864 0 0 1-5.973-13.83c-.707-3.771-2.514-13.907 3.379-19.171.629-.55 3.693-3.3 7.15-2.75 8.8 1.257 16.971 22.393 11.314 39.05-2.279 6.6-8.171 17.05-15.636 16.893a9.743 9.743 0 0 1-5.579-2.043c-10.055-7.227-6.521-26.87-6.207-28.52a33.628 33.628 0 0 1-1.964 4.95c-1.257 2.593-2.986 5.5-5.029 6.679 2.043 12.1-1.414 22.157-7.779 24.907-3.064 1.336-8.643 1.729-11.707-1.729S15.963 62 18.32 58.937s5.264-3.693 7.7-2.436a4.164 4.164 0 0 1 2.121 2.514 4.636 4.636 0 0 1-1.021 4.007c.236-1.886-.55-3.614-1.807-4.164s-4.557 1.021-5.107 3.221 1.021 4.164 2.436 5.107c2.829 1.807 6.364-.079 6.6-.157 4.086-2.2 5.657-9.114 3.929-17.364-.393.157-8.407 2.907-12.964-1.493-.471-.471-2.829-2.75-2.436-5.736s2.829-5.343 5.264-5.107 3.3 1.257 3.3 2.986a3.374 3.374 0 0 1-1.729 2.671 2.357 2.357 0 0 0-.157-3.221 2.436 2.436 0 0 0-3.221.55c-.943 1.257.314 3.614 1.414 4.793 3.143 3.221 9.429.864 9.743.786-.471-3.221-2.514-18.464 2.986-27.343.943-1.571 2.829-4.4 6.129-5.343.786-.236 4.479-1.1 6.679 1.257a5.343 5.343 0 0 1 .943 5.5 3.379 3.379 0 0 1-1.571 1.729 3.929 3.929 0 0 1-4.086-.864 2.986 2.986 0 0 0 3.929-.629 3.169 3.169 0 0 0-.471-3.771c-.786-.864-5.029-.393-5.186-.314a7.621 7.621 0 0 0-3.064 2.829c-3.3 5.421-.629 22.236-.471 23.1a34.493 34.493 0 0 0 4.793-5.893 47.379 47.379 0 0 0 4.164-8.643c.786-1.964 1.729-4.4 2.671-7.386A48.007 48.007 0 0 0 48.177 43.3c.943 4.95 2.121 11.157 7.15 13.907a8.439 8.439 0 0 0 5.736 1.179c6.679-1.414 10.057-14.221 9.271-24.043-.55-6.993-3.693-17.836-9.507-18.543-1.257-.157-3.3.157-5.893 2.436a17.914 17.914 0 0 0-1.414 2.594c-4.243 9.586 1.257 20.429 3.38 24.2z" class="cls-2" data-name="Path 1233" transform="translate(-9.913 -9.208)"/>
                <path id="Path_1234" d="M24.679 29.75a15.636 15.636 0 0 1 2.043-7.7c1.336-2.279 2.514-2.829 3.536-5.029A12.571 12.571 0 0 0 31.2 9.4c-1.886 4.557-3.457 5.579-4.636 5.579s-2.279-1.571-3.457-1.179a2.357 2.357 0 0 0-1.179 2.907c.629 1.179 3.3 1.336 3.3 1.336a18.528 18.528 0 0 0-11.786 6.286c-.786.943-4.086 5.264-4.007 10.607a32.528 32.528 0 0 1 .079 5.736A19.407 19.407 0 0 1 8.1 46.014c4.164-4.007 5.264-7.464 5.579-9.821.393-3.693-1.021-6.679.786-10.057a9.586 9.586 0 0 1 3.221-3.457 4.321 4.321 0 0 0 .157 4.479 3.614 3.614 0 0 0 1.493 1.179 10.686 10.686 0 0 1 7.543-9.979c-2.829 2.121-4.321 5.264-3.771 8.171a6.993 6.993 0 0 0 1.571 3.221z" class="cls-2" data-name="Path 1234" transform="translate(-8.1 -9.249)"/>
                <path id="Path_1235" d="M35.5 88.971c-.079.314 4.243 2.357 9.9 3.457 4.164.786 12.886 2.357 22.314-2.121 2.357-1.1 12.729-6.05 15.164-15.086.629-2.279.786-5.029 2.593-9.429a39.521 39.521 0 0 1 3.772-6.992 14.222 14.222 0 0 0-6.757 3.143c-5.814 5.029-3.457 12.571-8.014 19.407-1.964 2.907-5.5 6.364-12.886 8.486 5.814-1.65 8.486-8.093 10.136-14.771-9.114.471-8.093 11.157-17.914 15.4a3.85 3.85 0 0 0-1.1-3.064 3.693 3.693 0 0 0-2.75-.707c-2.907.157-3.929 1.807-6.286 2.671-4.087 1.571-8.094-.629-8.172-.394z" class="cls-2" data-name="Path 1235" transform="translate(-13.971 -19.835)"/>
            </g>
        </g>
    </g>
</svg>
