<svg xmlns="http://www.w3.org/2000/svg" width="60" height="60" viewBox="0 0 60 60">
    <defs>
        <style>
            .cls-1,.cls-2{fill:#fff}.cls-1{opacity:0}
        </style>
    </defs>
    <g id="logo_white" transform="translate(30 30)">
        <g id="logo_white-2" data-name="logo_white" transform="translate(-30 -30)">
            <path id="Rectangle_568" d="M0 0h60v60H0z" class="cls-1" data-name="Rectangle 568"/>
            <g id="Group_612" data-name="Group 612" transform="translate(4.339 4.933)">
                <path id="Path_1432" d="M44.063 33.632a23.089 23.089 0 0 1-4.071-9.432c-.482-2.571-1.714-9.482 2.3-13.071.429-.375 2.518-2.25 4.875-1.875 6 .857 11.571 15.268 7.714 26.625-1.554 4.5-5.571 11.625-10.661 11.518a6.643 6.643 0 0 1-3.8-1.393c-6.857-4.929-4.446-18.321-4.232-19.446a22.929 22.929 0 0 1-1.339 3.375c-.857 1.768-2.036 3.75-3.429 4.554 1.393 8.25-.964 15.107-5.3 16.982-2.089.911-5.893 1.179-7.982-1.179a5.365 5.365 0 0 1-.375-7.179c1.607-2.089 3.589-2.518 5.25-1.661a2.839 2.839 0 0 1 1.446 1.714 3.161 3.161 0 0 1-.7 2.732 2.685 2.685 0 0 0-1.232-2.839c-.857-.375-3.107.7-3.482 2.2a3.436 3.436 0 0 0 1.661 3.482c1.929 1.232 4.339-.054 4.5-.107 2.786-1.5 3.857-6.214 2.679-11.839-.268.107-5.732 1.982-8.839-1.018a4.935 4.935 0 0 1-1.661-3.911c.268-2.036 1.929-3.643 3.589-3.482s2.25.857 2.25 2.036a2.3 2.3 0 0 1-1.179 1.821 1.607 1.607 0 0 0-.107-2.2 1.661 1.661 0 0 0-2.2.375c-.643.857.214 2.464.964 3.268 2.143 2.2 6.429.589 6.643.536-.321-2.2-1.714-12.589 2.036-18.643a7.577 7.577 0 0 1 4.179-3.643c.536-.161 3.054-.75 4.554.857a3.643 3.643 0 0 1 .643 3.75 2.3 2.3 0 0 1-1.071 1.179 2.679 2.679 0 0 1-2.786-.589 2.036 2.036 0 0 0 2.679-.429 2.161 2.161 0 0 0-.321-2.571c-.536-.589-3.429-.268-3.536-.214a5.2 5.2 0 0 0-2.089 1.929c-2.25 3.7-.429 15.161-.321 15.75a23.518 23.518 0 0 0 3.268-4.018 32.3 32.3 0 0 0 2.839-5.893 68.98 68.98 0 0 0 1.821-5.036 32.732 32.732 0 0 0-1.125 15.8c.643 3.375 1.446 7.607 4.875 9.482a5.754 5.754 0 0 0 3.911.8c4.554-.964 6.857-9.7 6.321-16.393-.375-4.768-2.518-12.161-6.482-12.643-.857-.107-2.25.107-4.018 1.661a12.214 12.214 0 0 0-.964 1.768c-2.891 6.546.859 13.939 2.305 16.51z" class="cls-2" data-name="Path 1432" transform="translate(-12.027 -9.208)"/>
                <path id="Path_1433" d="M19.4 23.275a10.661 10.661 0 0 1 1.393-5.25c.911-1.554 1.714-1.929 2.411-3.429a8.571 8.571 0 0 0 .643-5.2c-1.286 3.107-2.357 3.8-3.161 3.8s-1.554-1.071-2.357-.8a1.607 1.607 0 0 0-.8 1.982c.429.8 2.25.911 2.25.911a12.633 12.633 0 0 0-8.036 4.286 11.92 11.92 0 0 0-2.732 7.232 22.178 22.178 0 0 1 .054 3.911 13.232 13.232 0 0 1-.965 3.646c2.839-2.732 3.589-5.089 3.8-6.7.268-2.518-.7-4.554.536-6.857a6.536 6.536 0 0 1 2.2-2.357 2.946 2.946 0 0 0 .107 3.054 2.464 2.464 0 0 0 1.018.8 7.286 7.286 0 0 1 5.143-6.8 5.838 5.838 0 0 0-2.571 5.571 4.768 4.768 0 0 0 1.071 2.2z" class="cls-2" data-name="Path 1433" transform="translate(-8.1 -9.297)"/>
                <path id="Path_1434" d="M35.5 79.371c-.054.214 2.893 1.607 6.75 2.357a23.842 23.842 0 0 0 15.214-1.446c1.607-.75 8.678-4.125 10.336-10.282a36.708 36.708 0 0 1 1.768-6.429 26.946 26.946 0 0 1 2.574-4.771 9.7 9.7 0 0 0-4.607 2.143c-3.964 3.429-2.357 8.571-5.464 13.232-1.339 1.982-3.75 4.339-8.786 5.786 3.964-1.125 5.786-5.518 6.911-10.071-6.214.321-5.518 7.607-12.214 10.5a2.625 2.625 0 0 0-.75-2.089 2.518 2.518 0 0 0-1.875-.482c-1.982.107-2.679 1.232-4.286 1.821-2.786 1.071-5.518-.429-5.571-.269z" class="cls-2" data-name="Path 1434" transform="translate(-20.821 -32.233)"/>
            </g>
        </g>
    </g>
</svg>
