<svg xmlns="http://www.w3.org/2000/svg" width="24" height="24" viewBox="0 0 24 24">
    <defs>
        <style>
            .cls-1,.cls-2{fill:#fff}.cls-1{opacity:0}.cls-2{fill-rule:evenodd}
        </style>
    </defs>
    <g id="rouble_symbol" data-name="rouble symbol" transform="translate(12 12)">
        <g id="rouble" transform="translate(-12 -12)">
            <path id="Rectangle_278" d="M0 0h24v24H0z" class="cls-1" data-name="Rectangle 278"/>
            <path id="Path_649" d="M9.5 20v-3.7h4.2c1.3 0 1.3-2.4 0-2.4H9.5v-1.1h4.1a4.9 4.9 0 0 0 0-9.8H7.7a1 1 0 0 0-1 1v6.5h-.4c-1.3 0-1.3 2.4 0 2.4h.5V14h-.5c-1.3 0-1.3 2.4 0 2.4h.5V20c0 1.3 2.7 1.3 2.7 0zm3.7-9.6H9.5v-5h3.7a2.5 2.5 0 1 1 0 5z" class="cls-2" data-name="Path 649"/>
        </g>
    </g>
</svg>
