<svg xmlns="http://www.w3.org/2000/svg" width="88" height="54.369" viewBox="0 0 88 54.369">
    <defs>
        <style>
            .cls-1{fill:#fff}
        </style>
    </defs>
    <g id="shipping_icon" transform="translate(44 27.185)">
        <g id="Group_396" data-name="Group 396" transform="translate(-44 -27.185)">
            <path id="Path_981" d="M86.979 35.2l-5.4-12.417a.54.54 0 0 0-.54-.324h-10.8A12.093 12.093 0 1 0 51.887 11.01H13.34a.54.54 0 0 0-.54.54v1.08a.54.54 0 0 0 .54.54h38.547A12.093 12.093 0 0 0 62.9 24.183v22.135H31.8v-.756l-.432-1.08h-.108l-.54-.972h-.108l-.756-.864h-.108l-.86-.646-.324.432v-.54l-.972-.54h-.108l-1.08-.324H26.3a6.587 6.587 0 0 0-2.591 0l-1.188.324h-.111l-.972.54h-.108l-.864.648h-.108l-.758.86h-.108l-.54.972h-.108l-.432 1.08v.756H13.34a.54.54 0 0 0-.54.54v1.08a.54.54 0 0 0 .54.54h4.751a6.91 6.91 0 0 0 13.713 0h34.228a6.91 6.91 0 0 0 13.713 0h6.694a.54.54 0 0 0 .54-.54zM24.893 52.148a4.751 4.751 0 1 1 4.751-4.748 4.751 4.751 0 0 1-4.751 4.751zm29.154-40.059a9.934 9.934 0 1 1 9.934 9.934 9.934 9.934 0 0 1-9.934-9.934zm18.787 40.059a4.751 4.751 0 1 1 4.751-4.748 4.751 4.751 0 0 1-4.751 4.748zm11.986-5.83h-5.075v-.756l-.432-1.08v-.216l-.54-.972h-.108l-.756-.756H77.8l-.864-.648h-.108l-.972-.54h-.106l-1.08-.324h-.108a6.586 6.586 0 0 0-2.591 0l-1.188.324h-.54l-.972.54h-.108l-.864.648h-.216l-.756.756h-.107l-.54.972v.216l-.432 1.08v.864h-.972v-21.6h14.685l4.859 10.8z" class="cls-1" data-name="Path 981" transform="translate(1.021 -.048)"/>
            <path id="Path_982" d="M.54 18.56h34.12a.54.54 0 0 0 .54-.54v-1.08a.54.54 0 0 0-.54-.54H.54a.54.54 0 0 0-.54.54v1.08a.54.54 0 0 0 .54.54z" class="cls-1" data-name="Path 982" transform="translate(0 1.256)"/>
            <path id="Path_983" d="M.54 26.86h42.65a.54.54 0 0 0 .54-.54v-1.08a.54.54 0 0 0-.54-.54H.54a.54.54 0 0 0-.54.54v1.08a.54.54 0 0 0 .54.54z" class="cls-1" data-name="Path 983" transform="translate(0 1.918)"/>
            <path id="Path_984" d="M35.2 34.62v-1.08a.54.54 0 0 0-.54-.54H.54a.54.54 0 0 0-.54.54v1.08a.54.54 0 0 0 .54.54h34.12a.54.54 0 0 0 .54-.54z" class="cls-1" data-name="Path 984" transform="translate(0 2.58)"/>
            <path id="Path_985" d="M64.6 10.75h-3.24V3.84a.54.54 0 0 0-.54-.54h-1.08a.54.54 0 0 0-.54.54v8.53a.54.54 0 0 0 .54.54h4.86a.54.54 0 0 0 .54-.54v-1.08a.54.54 0 0 0-.54-.54z" class="cls-1" data-name="Path 985" transform="translate(4.721 .211)"/>
        </g>
    </g>
</svg>
