<svg xmlns="http://www.w3.org/2000/svg" width="88" height="88" viewBox="0 0 88 88">
    <defs>
        <style>
            .cls-1{fill:none}.cls-2{fill:#fff}
        </style>
    </defs>
    <g id="utp_icon_03" transform="translate(44 44)">
        <g id="Group_961" data-name="Group 961" transform="translate(-44 -44)">
            <path id="Rectangle_835" d="M0 0h88v88H0z" class="cls-1" data-name="Rectangle 835"/>
            <g id="Group_960" data-name="Group 960">
                <path id="Path_2059" d="M40.9 74H22.4a.7.7 0 0 1-.7-.7V29.8a.75.75 0 0 1 1.5 0v42.7h17v-57h-17v10.8a.75.75 0 0 1-1.5 0V14.8a.7.7 0 0 1 .7-.7h18.5a.7.7 0 0 1 .7.7v58.5a.7.7 0 0 1-.7.7z" class="cls-2" data-name="Path 2059"/>
                <path id="Path_2060" d="M22.6 69.4h-.2a.75.75 0 1 1 0-1.5 3.6 3.6 0 0 0 3.2-1.5c2.7-3.4 2.9-12.6.6-26.4a200.851 200.851 0 0 0-4.5-20.3.728.728 0 0 1 1.4-.4c.4 1.6 10.7 39 3.7 48.1a5.1 5.1 0 0 1-4.2 2z" class="cls-2" data-name="Path 2060"/>
                <path id="Path_2061" d="M32.7 50.3a.7.7 0 0 1-.7-.7c-.5-7.1-7.8-34.3-7.9-34.6a.728.728 0 0 1 1.4-.4c.3 1.1 7.4 27.6 7.9 34.9a.7.7 0 0 1-.7.8z" class="cls-2" data-name="Path 2061"/>
                <path id="Path_2062" d="M40.7 61.7a4 4 0 0 1-3.1-1.4C35 57.5 34.5 49.6 36.1 37a.8.8 0 1 1 1.5.2c-1.9 15.1-.4 20.4 1.2 22.2a2.6 2.6 0 0 0 2.1.9.75.75 0 0 1 0 1.5z" class="cls-2" data-name="Path 2062"/>
                <path id="Path_2063" d="M37.3 34h-.1a.7.7 0 0 1-.6-.8c1.5-9.7 3.5-18.4 3.6-18.5a.8.8 0 0 1 1.5.4c0 .1-2.1 8.7-3.5 18.4a.7.7 0 0 1-.9.5z" class="cls-2" data-name="Path 2063"/>
                <path id="Path_2064" d="M38.4 53.4a.7.7 0 0 1-.7-.6c-.4-2.9.4-7.7 2.5-14a.728.728 0 0 1 1.4.4c-2 6-2.8 10.6-2.5 13.3a.7.7 0 0 1-.6.8z" class="cls-2" data-name="Path 2064"/>
                <path id="Path_2065" d="M65.5 74H47.1a.7.7 0 0 1-.7-.7V50.2a.75.75 0 0 1 1.5 0v22.3h17v-57h-17v30.3a.75.75 0 1 1-1.5 0v-31a.7.7 0 0 1 .7-.7h18.4a.7.7 0 0 1 .7.7v58.5a.7.7 0 0 1-.7.7z" class="cls-2" data-name="Path 2065"/>
                <path id="Path_2066" d="M47.1 69.3h-.2a.7.7 0 0 1-.5-.9c0-.1 2.7-9.7 4.5-20.3 2.3-13.8 2.1-23-.6-26.4a3.6 3.6 0 0 0-3.2-1.5.75.75 0 0 1 0-1.5 5.2 5.2 0 0 1 4.3 2c7.1 9-3.2 46.5-3.7 48.1a.7.7 0 0 1-.6.5z" class="cls-2" data-name="Path 2066"/>
                <path id="Path_2067" d="M49.4 74h-.2a.7.7 0 0 1-.5-.9c.1-.3 7.4-27.5 7.9-34.6a.752.752 0 1 1 1.5.1c-.5 7.3-7.6 33.8-7.9 34.9a.7.7 0 0 1-.8.5z" class="cls-2" data-name="Path 2067"/>
                <path id="Path_2068" d="M60.9 47a.7.7 0 0 1-.7-.7c-.9-10.1-.2-16.2 2.2-18.7a4 4 0 0 1 3.2-1.3.75.75 0 0 1 0 1.5 2.5 2.5 0 0 0-2 .8c-1.4 1.5-2.9 5.7-1.8 17.5a.7.7 0 0 1-.7.8z" class="cls-2" data-name="Path 2068"/>
                <path id="Path_2069" d="M65.5 74a.7.7 0 0 1-.7-.6c0-.1-2.6-11-4.1-22.1a.757.757 0 0 1 1.5-.2c1.4 11 4 21.9 4 22a.7.7 0 0 1-.6.9h-.2z" class="cls-2" data-name="Path 2069"/>
                <path id="Path_2070" d="M57 29.5l-1-.3c-.7-.4-3-1.6 1.7-14.8a.743.743 0 1 1 1.4.5C55.7 24.5 56 27.6 56.7 28a.9.9 0 0 0 .7 0c1.8-.6 4.9-4.7 7.5-10a.762.762 0 1 1 1.4.6c-.7 1.6-4.8 9.6-8.3 10.8z" class="cls-2" data-name="Path 2070"/>
                <path id="Path_2071" d="M65.5 49.8a.7.7 0 0 1-.7-.5c-2.1-6.3-2.9-11-2.5-14a.757.757 0 1 1 1.5.2c-.4 2.7.5 7.3 2.5 13.3a.7.7 0 0 1-.5.9z" class="cls-2" data-name="Path 2071"/>
                <path id="Path_2072" d="M58.7 74h-.2a.7.7 0 0 1-.6-.9c1.5-6.8 1.5-15.5 0-16.7h-.3c-.2.3-1.3 2.5-3.2 16.9a.8.8 0 0 1-1.5-.2C55.2 55.9 56.4 55.3 57 55a1.8 1.8 0 0 1 1.9.2c2.5 2 1.7 12.7.5 18.2a.7.7 0 0 1-.7.6z" class="cls-2" data-name="Path 2072"/>
            </g>
        </g>
    </g>
</svg>
