<?xml version="1.0" encoding="UTF-8"?> <svg xmlns="http://www.w3.org/2000/svg" width="32" height="32" viewBox="0 0 32 32"><defs><style> .cls-1,.cls-2{fill:#fff}.cls-2{opacity:0} </style></defs><g id="instagram_icon" transform="translate(16 16)"><g id="instagram_icon-2" data-name="instagram_icon" transform="translate(-16 -16)"><g id="Group_50" data-name="Group 50" transform="translate(4 4)"><path id="Path_124" d="M16 18.4a2.4 2.4 0 1 0-2.4-2.4 2.4 2.4 0 0 0 2.4 2.4z" class="cls-1" data-name="Path 124" transform="translate(-4 -4)"></path><path id="Path_125" d="M21.2 13.1v-2.4h-.3l-2 .1v2.3z" class="cls-1" data-name="Path 125" transform="translate(-4 -4)"></path><path id="Path_126" d="M16 4a12 12 0 1 0 12 12A12 12 0 0 0 16 4zm6.8 10.6v5.6a2.6 2.6 0 0 1-2.6 2.6h-8.4a2.6 2.6 0 0 1-2.6-2.6v-8.4a2.6 2.6 0 0 1 2.6-2.6h8.4a2.6 2.6 0 0 1 2.6 2.6z" class="cls-1" data-name="Path 126" transform="translate(-4 -4)"></path><path id="Path_127" d="M19.7 16a3.7 3.7 0 1 1-7.2-1.4h-2v5.6a1.3 1.3 0 0 0 1.3 1.3h8.4a1.3 1.3 0 0 0 1.3-1.3v-5.6h-2a3.7 3.7 0 0 1 .2 1.4z" class="cls-1" data-name="Path 127" transform="translate(-4 -4)"></path></g><path id="Rectangle_49" d="M0 0h32v32H0z" class="cls-2" data-name="Rectangle 49"></path></g></g></svg> 