<?xml version="1.0" encoding="UTF-8"?> <svg xmlns="http://www.w3.org/2000/svg" width="224" height="224" viewBox="0 0 224 224"><defs><style> .cls-1,.cls-2{fill:#fff}.cls-1{opacity:0} </style></defs><g id="logo_white_big" transform="translate(112 112)"><g id="lorem_logo" transform="translate(-112 -112)"><path id="Rectangle_456" d="M0 0h224v224H0z" class="cls-1" data-name="Rectangle 456"></path><g id="Group_468" data-name="Group 468" transform="translate(16.2 18.416)"><path id="Path_1130" d="M119.241 100.392a86.2 86.2 0 0 1-15.2-35.2c-1.8-9.6-6.4-35.4 8.6-48.8 1.6-1.4 9.4-8.4 18.2-7 22.4 3.2 43.2 57 28.8 99.4-5.8 16.8-20.8 43.4-39.8 43a24.8 24.8 0 0 1-14.2-5.2c-25.6-18.4-16.6-68.4-15.8-72.6a85.6 85.6 0 0 1-5 12.6c-3.2 6.6-7.6 14-12.8 17 5.2 30.8-3.6 56.4-19.8 63.4-7.8 3.4-22 4.4-29.8-4.4s-7.4-19-1.4-26.8 13.4-9.4 19.6-6.2a10.6 10.6 0 0 1 5.4 6.4 11.8 11.8 0 0 1-2.6 10.2c.6-4.8-1.4-9.2-4.6-10.6s-11.6 2.6-13 8.2 2.6 10.6 6.2 13c7.2 4.6 16.2-.2 16.8-.4 10.4-5.6 14.4-23.2 10-44.2-1 .4-21.4 7.4-33-3.8-1.2-1.2-7.2-7-6.2-14.6s7.2-13.6 13.4-13 8.4 3.2 8.4 7.6-4.2 6.6-4.4 6.8a6 6 0 0 0-.4-8.2 6.2 6.2 0 0 0-8.2 1.4c-2.4 3.2.8 9.2 3.6 12.2 8 8.2 24 2.2 24.8 2-1.2-8.2-6.4-47 7.6-69.6 2.4-4 7.2-11.2 15.6-13.6 2-.6 11.4-2.8 17 3.2a13.6 13.6 0 0 1 2.4 14 8.6 8.6 0 0 1-4 4.4 10 10 0 0 1-10.4-2.2 7.6 7.6 0 0 0 10-1.6c2.2-3.2.8-7.4-1.2-9.6s-12.8-1-13.2-.8a19.4 19.4 0 0 0-7.8 7.2c-8.4 13.8-1.6 56.6-1.2 58.8a87.8 87.8 0 0 0 12.2-15 120.6 120.6 0 0 0 10.6-22c2-5 4.4-11.2 6.8-18.8a122.2 122.2 0 0 0-4.2 59c2.4 12.6 5.4 28.4 18.2 35.4 2.2 1.2 8 4.4 14.6 3 17-3.6 25.6-36.2 23.6-61.2-1.4-17.8-9.4-45.4-24.2-47.2-3.2-.4-8.4.4-15 6.2a45.6 45.6 0 0 0-3.6 6.6c-10.8 24.4 3.2 52 8.6 61.6z" class="cls-2" data-name="Path 1130" transform="translate(.359 -9.208)"></path><path id="Path_1131" d="M50.3 61.2a39.8 39.8 0 0 1 5.2-19.6c3.4-5.8 6.4-7.2 9-12.8a32 32 0 0 0 2.4-19.4C62.1 21 58.1 23.6 55.1 23.6s-5.8-4-8.8-3a6 6 0 0 0-3 7.4c1.6 3 8.4 3.4 8.4 3.4-4.2.6-19.4 3-30 16-2 2.4-10.4 13.4-10.2 27a82.8 82.8 0 0 1 .2 14.6 49.4 49.4 0 0 1-3.6 13.6c10.6-10.2 13.4-19 14.2-25 1-9.4-2.6-17 2-25.6a24.4 24.4 0 0 1 8.2-8.8 11 11 0 0 0 .4 11.4 9.2 9.2 0 0 0 3.8 3 27.2 27.2 0 0 1 19.2-25.4c-7.2 5.4-11 13.4-9.6 20.8a17.8 17.8 0 0 0 4 8.2z" class="cls-2" data-name="Path 1131" transform="translate(-8.1 -9.016)"></path><path id="Path_1132" d="M35.5 135.6c-.2.8 10.8 6 25.2 8.8 10.6 2 32.8 6 56.8-5.4 6-2.8 32.4-15.4 38.6-38.4 1.6-5.8 2-12.8 6.6-24a100.6 100.6 0 0 1 9.6-17.8 36.2 36.2 0 0 0-17.2 8c-14.8 12.8-8.8 32-20.4 49.4-5 7.4-14 16.2-32.8 21.6 14.8-4.2 21.6-20.6 25.8-37.6-23.2 1.2-20.6 28.4-45.6 39.2a9.8 9.8 0 0 0-2.8-7.8 9.4 9.4 0 0 0-7-1.8c-7.4.4-10 4.6-16 6.8-10.4 4-20.6-1.6-20.8-1z" class="cls-2" data-name="Path 1132" transform="translate(19.299 40.384)"></path></g></g></g></svg> 