<?xml version="1.0" encoding="UTF-8"?> <svg xmlns="http://www.w3.org/2000/svg" width="88" height="88" viewBox="0 0 88 88"><defs><style> .cls-1{fill:#fff}.cls-2{fill:none} </style></defs><g id="utp_icon_04" transform="translate(44 44)"><g id="Group_967" data-name="Group 967" transform="translate(-44 -44)"><g id="Group_966" data-name="Group 966"><path id="Path_2077" d="M41.2 39.6a14.4 14.4 0 0 1-9.1-3.1l-.7.8-.7.8a16.1 16.1 0 0 0 10.5 3.6h.1v-2.1z" class="cls-1" data-name="Path 2077"></path><path id="Path_2078" d="M35.1 46.7l1.6-1.3c-2.4-2.9-9.1-5.6-9.4-5.7l-.8 1.9c1.8.7 6.9 3 8.6 5.1z" class="cls-1" data-name="Path 2078"></path><path id="Path_2079" d="M70.3 33.9a1.9 1.9 0 0 0-1.9 0 9.8 9.8 0 0 0-4.3 4.6 56.6 56.6 0 0 0-1.3-9.4c-2-8.1-3.3-11.9-5.6-11.5a2.2 2.2 0 0 0-1.5 1l-.3.7c-1.1-1.4-2.7-2.7-4.6-1.9l-.8.5a2.7 2.7 0 0 0-2.4-.7 2.4 2.4 0 0 0-1.5 1.1c-.6.9-.6 2.4-.1 4.3v.4h-.7a2.3 2.3 0 0 0-1.4.6 2.3 2.3 0 0 0-1.4-.6h-.7v-.4c.5-2 .5-3.4-.1-4.3a2.4 2.4 0 0 0-1.5-1.1 2.7 2.7 0 0 0-2.4.7l-.8-.5c-1.9-.8-3.5.6-4.6 1.9l-.3-.7a2.2 2.2 0 0 0-1.5-1c-2.2-.3-3.6 3.5-5.6 11.5a56.6 56.6 0 0 0-1.3 9.4 9.8 9.8 0 0 0-4.3-4.6 1.9 1.9 0 0 0-1.9 0c-1.6 1-.6 2.7 0 3.5l.5.9a6.4 6.4 0 0 1 .2 2.1 17.9 17.9 0 0 0 .5 4.2 14.9 14.9 0 0 1 .3 1.8c.3 2.2.6 4.6 4.4 7.3a18 18 0 0 1 4.1 3.8c-.7 2.3-3.4 8.3-5.3 12.3l-.3 1.2h17.3l.2-.7c0-.1 2.6-8.6 3.9-10.8l.7-1.3.7 1.3c1.3 2.2 3.9 10.7 3.9 10.8l.2.7h17.3l-.6-1.3a126.1 126.1 0 0 1-5.3-12.3 18 18 0 0 1 4.1-3.8c3.8-2.7 4.1-5.1 4.4-7.3a14.9 14.9 0 0 1 .3-1.8 17.9 17.9 0 0 0 .5-4.2 6.4 6.4 0 0 1 .2-2.1l.5-.9c.6-.8 1.7-2.4.1-3.4zM43.1 55.4a8.1 8.1 0 0 1-1.3 3.2c-1.2 2-3.3 8.5-3.9 10.5h-13c1.1-2.3 3.1-6.8 4.3-9.8l1.7-.6c0-.1-1.3-3.4-5.9-6.7-3.1-2.2-3.4-4-3.6-6a16.5 16.5 0 0 0-.4-2.1 16.1 16.1 0 0 1-.4-3.8 7.2 7.2 0 0 0-.4-2.8l-.6-1-.5-.9a7.7 7.7 0 0 1 3.6 4.3 11.9 11.9 0 0 0 2.4 4.4 11.7 11.7 0 0 1 1.5 2.3l1.7-.6a12.8 12.8 0 0 0-1.7-2.8l-.6-.9a67.4 67.4 0 0 1 1-12.6c.6-2.4 2.4-9.6 3.6-10.2l.2.2c.5.8.6 3.1-.4 6.8a39.6 39.6 0 0 0-1.1 6.2 16 16 0 0 1-.3 2.2l1.8.5a17.4 17.4 0 0 0 .4-2.5 37.5 37.5 0 0 1 1.1-6A23.4 23.4 0 0 0 33 22c.7-1.3 2.3-3.6 3.5-3.1a.7.7 0 0 1 .5.4c.3.7-.4 2.2-.9 3.2a13.5 13.5 0 0 0-.6 1.5l-.7 2a8.2 8.2 0 0 0-.8 2.7 10.5 10.5 0 0 1-.2 1.3 14.1 14.1 0 0 0-.5 4.6l1.8-.4a15.8 15.8 0 0 1 .5-3.9 8.1 8.1 0 0 0 .3-1.8 16.8 16.8 0 0 1 .7-2l.7-2 .5-1.3a8.8 8.8 0 0 0 1.1-3.8c.3-.4.8-.8 1.1-.7l.4.3c.1.2.4.9-.1 2.9A62 62 0 0 0 39 29a12.3 12.3 0 0 1-.4 1.4 17.8 17.8 0 0 0-.9 4h1.8a16.9 16.9 0 0 1 .8-3.6 9.4 9.4 0 0 0 .4-1.8 34.409 34.409 0 0 1 .7-4.2 1.3 1.3 0 0 1 1-.3c.4 0 .6.1.3 2.5-.1.9-.2 1.8-.3 2.5a8.5 8.5 0 0 0-.2 2.5 7.8 7.8 0 0 1 0 1.3v.8c0 .3.1.7.2 1.6a63.6 63.6 0 0 1 .6 6.7c.1 3.6.1 13 .1 13zm25.7-19l-.6 1a7.2 7.2 0 0 0-.4 2.8 16.1 16.1 0 0 1-.4 3.8 16.5 16.5 0 0 0-.4 2.1c-.3 2-.5 3.8-3.6 6-4.7 3.3-5.9 6.5-5.9 6.7l1.7.6c1.1 2.9 3.2 7.5 4.3 9.8h-13c-.6-2.1-2.7-8.5-3.9-10.5a8.3 8.3 0 0 1-1.3-3.1c0-.1-.1-9.4 0-12.9a63.8 63.8 0 0 1 .6-6.7c.1-.9.2-1.4.2-1.6v-.8a7.8 7.8 0 0 1 0-1.3 8.5 8.5 0 0 0-.2-2.5c-.1-.7-.2-1.5-.3-2.5-.2-2.5 0-2.5.3-2.5a1.3 1.3 0 0 1 1 .3 34.409 34.409 0 0 1 .7 4.2 9.4 9.4 0 0 0 .4 1.8 16.9 16.9 0 0 1 .8 3.6h1.8a17.8 17.8 0 0 0-.9-4 12.2 12.2 0 0 1-.4-1.4 62.2 62.2 0 0 0-1.5-7.3c-.5-2-.2-2.7-.1-2.9l.4-.3c.3-.1.8.3 1.1.7a8.8 8.8 0 0 0 1.1 3.8l.5 1.3.7 2a16.8 16.8 0 0 1 .7 2 8.1 8.1 0 0 0 .3 1.8 15.8 15.8 0 0 1 .5 3.9l1.8.4a14.1 14.1 0 0 0-.5-4.6l-.3-1.3a7.9 7.9 0 0 0-.8-2.8l-.7-1.9a13.5 13.5 0 0 0-.6-1.5c-.5-1-1.2-2.5-.9-3.2a.7.7 0 0 1 .5-.4c1.2-.5 2.8 1.7 3.5 3.1a23.4 23.4 0 0 0 .8 4.8 37.6 37.6 0 0 1 1.1 6 17.3 17.3 0 0 0 .4 2.5l1.8-.5a16 16 0 0 1-.3-2.2 39.6 39.6 0 0 0-1.1-6.2c-1-3.6-.9-6-.4-6.8l.2-.2c1.2.6 3 7.8 3.6 10.2a67.4 67.4 0 0 1 1.4 12.6l-.6.9a12.7 12.7 0 0 0-1.9 2.7l1.7.6a11.7 11.7 0 0 1 1.5-2.3 11.9 11.9 0 0 0 2.4-4.4 7.7 7.7 0 0 1 3.6-4.3z" class="cls-1" data-name="Path 2079"></path><path id="Path_2080" d="M55.9 36.6a14.2 14.2 0 0 1-9.1 3.1v2.1h.1a16.1 16.1 0 0 0 10.5-3.6z" class="cls-1" data-name="Path 2080"></path><path id="Path_2081" d="M51.3 45.4l1.6 1.3c1.7-2.1 6.8-4.4 8.6-5.1l-.8-1.9c-.3.1-7 2.8-9.4 5.7z" class="cls-1" data-name="Path 2081"></path></g><path id="Rectangle_838" d="M0 0h88v88H0z" class="cls-2" data-name="Rectangle 838"></path></g></g></svg> 