<?xml version="1.0" encoding="UTF-8"?> <svg xmlns="http://www.w3.org/2000/svg" width="88" height="88" viewBox="0 0 88 88"><defs><style> .cls-1{fill:#fff}.cls-2{fill:none} </style></defs><g id="utp_icon_06" transform="translate(44 44)"><g id="Group_964" data-name="Group 964" transform="translate(-44 -44)"><g id="Group_963" data-name="Group 963"><path id="Path_2073" d="M26 73.8a1.1 1.1 0 0 0 1.1-.2l8.9-8.9h.1A25.6 25.6 0 0 0 44 66a25.9 25.9 0 1 0-18.7-8v14.8a1 1 0 0 0 .7 1zm-5.8-33.7A23.8 23.8 0 1 1 44 63.9a23.4 23.4 0 0 1-7.9-1.4 1.1 1.1 0 0 0-1.1.2l-7.5 7.5V57.5a1 1 0 0 0-.3-.7 23.7 23.7 0 0 1-7-16.7z" class="cls-1" data-name="Path 2073"></path><g id="Group_962" data-name="Group 962"><path id="Path_2074" d="M46.7 39.9a4.5 4.5 0 0 0 1.6-4.7 4.431 4.431 0 0 0-8.7 1.2 1.1 1.1 0 1 0 2.1 0A2.573 2.573 0 0 1 44 34h.6a2.35 2.35 0 0 1 .8 4.1 6.1 6.1 0 0 0-2.5 4.9 1.1 1.1 0 0 0 2.1 0 4 4 0 0 1 1.7-3.1z" class="cls-1" data-name="Path 2074"></path><path id="Path_2075" d="M44.4 46.2h-.8l-.3.2a1.1 1.1 0 0 0-.3.7 1 1 0 0 0 .3.7 1.1 1.1 0 0 0 1.5 0l.2-.3a.924.924 0 0 0-.2-1.1z" class="cls-1" data-name="Path 2075"></path></g></g><path id="Rectangle_836" d="M0 0h88v88H0z" class="cls-2" data-name="Rectangle 836"></path></g></g></svg> 