<?xml version="1.0" encoding="UTF-8"?> <svg xmlns="http://www.w3.org/2000/svg" width="88" height="88" viewBox="0 0 88 88"><defs><style> .cls-1{fill:#fff}.cls-2{fill:none} </style></defs><g id="utp_icon_05" transform="translate(44 44)"><g id="Group_965" data-name="Group 965" transform="translate(-44 -44)"><path id="Path_2076" d="M60.9 49.7a.95.95 0 1 0 0-1.9h-6L50.7 32a7.6 7.6 0 0 0-3.6-10.7H47v-5.6a1.8 1.8 0 0 0-1.9-1.7h-2.2a1.8 1.8 0 0 0-1.9 1.7v5.6h-.1A7.6 7.6 0 0 0 37 31.4l-4.2 16.4h-5.7a.95.95 0 0 0 0 1.9h5.1L29.1 62c-.6 2.2 2.1 5.6 4 6.7h.1v4.4a1 1 0 0 0 .9.9.9.9 0 0 0 .9-1v-4.9l4.7-18.4h3.4v4.9a.95.95 0 1 0 1.9 0v-4.9h3.4L53 67.6V73a.951.951 0 0 0 1.9-.1v-4.2h.1a8.8 8.8 0 0 0 3.6-3.3 3.4 3.4 0 0 0 .5-2.6l-3.7-13.1zm-18-33.8h2.3v4.9h-2.3zm1.1 6.7a5.7 5.7 0 0 1 5 8.6l-.2.3a5.7 5.7 0 1 1-4.8-8.9zm-10.5 44h-.1c-1.3-1.1-2.7-3.2-2.5-4.1l7.6-28.9h.1a7.7 7.7 0 0 0 2.7 1.7h.1zm11.4-18.8v-4.9a.95.95 0 0 0-1.9 0v4.9h-2.8l3-11.8h1.7l3 11.8zm12.2 15.5a1.7 1.7 0 0 1-.3 1.1 7.1 7.1 0 0 1-2.1 2.2h-.2l-7.8-31.1h.1a7.7 7.7 0 0 0 2.3-1.5h.1z" class="cls-1" data-name="Path 2076"></path><path id="Rectangle_837" d="M0 0h88v88H0z" class="cls-2" data-name="Rectangle 837"></path></g></g></svg> 