<?xml version="1.0" encoding="UTF-8"?> <svg xmlns="http://www.w3.org/2000/svg" width="88" height="88" viewBox="0 0 88 88"><defs><style> .cls-1{fill:#fff}.cls-2{fill:none} </style></defs><g id="utp_icon_01" transform="translate(44 44)"><g id="Group_957" data-name="Group 957" transform="translate(-44 -44)"><path id="Path_2054" d="M73.2 58.7a1.2 1.2 0 0 0-1.7.3 28.9 28.9 0 0 1-9.9 8.3l-3.2-13.2 3.3-.4a4 4 0 0 0 2.5-1.3 3.2 3.2 0 0 0 .8-2.7l-.2-1.5a3.7 3.7 0 0 0-4.1-3.1l-4.2.5-1.7-7.1 1.7-.9 3.5-1.7c2.7-1.1 4.8-.9 5.8.5a3.4 3.4 0 0 1-.3 4.1 3.6 3.6 0 0 1-2.2 1.1A1.6 1.6 0 0 1 62 41c-.4-.5-1-1.3-.6-2a1.1 1.1 0 0 1 1.1-.5c.3.1.4.3.4.7a1.2 1.2 0 0 0 2.3-.2 2.9 2.9 0 0 0-2.3-2.8 3.5 3.5 0 0 0-3.6 1.7c-.9 1.4-.5 3.2.8 4.7a4.1 4.1 0 0 0 2.9 1.6h.1a5.4 5.4 0 0 0 3.9-1.7 5.8 5.8 0 0 0 .6-7.1c-.6-.9-3.1-3.8-8.7-1.4l-3.7 1.8c-1.8 1-3 1.6-7.3 2.5a132.8 132.8 0 0 1-14.2 1.9l-8-23.8a3.6 3.6 0 0 0-1.9-2.1 3.7 3.7 0 0 0-2.8-.1l-2.7 1a3.5 3.5 0 0 0-1.9 1.8 3.7 3.7 0 0 0 0 2.9l11.1 27.9a3.8 3.8 0 0 0 2 2.1h.4a3.2 3.2 0 0 0-.8 2.7l.2 1.4a3.7 3.7 0 0 0 1.3 2.3l-1.7 13.2a35.6 35.6 0 0 1-12.5-6.8 1.2 1.2 0 1 0-1.5 1.8c7 6.1 17.3 9.5 27.9 9.5a46.5 46.5 0 0 0 5.3-.3c10.9-1.2 20-5.9 25.4-13.3a1.2 1.2 0 0 0-.3-1.7zM61 47.6h.2a1.3 1.3 0 0 1 1.3 1l.2 1.5a.9.9 0 0 1-.3.8 1.4 1.4 0 0 1-.9.5l-3.5.4-.8-3.8zm-29.4 6.2l-.2-1.4a.9.9 0 0 1 .3-.8 1.4 1.4 0 0 1 .9-.5l22-2.7.9 3.7-22.4 2.8a1.4 1.4 0 0 1-1.5-1.1zm16.8-13.3a34.5 34.5 0 0 0 4.1-1l1.5 6.6-19.3 2.4a3.9 3.9 0 0 0 .6-3.7l-.8-2.3a131.1 131.1 0 0 0 13.9-2zM18.5 18a1 1 0 0 1 .5-.5l2.7-1h.9a1.2 1.2 0 0 1 .7.7l7.9 23.1-4 .3H27l-8.5-21.5a1.7 1.7 0 0 1 0-1.1zM28 43l4.1-.3 1 2.9a1.5 1.5 0 0 1-.5 1.8l-1.3.5a1.1 1.1 0 0 1-.8 0 1.9 1.9 0 0 1-.8-.8zm19.7 28.3a47.2 47.2 0 0 1-16.5-1.2l1.7-12.9h.6l22.7-2.8 3.3 13.7v.2a40.5 40.5 0 0 1-11.8 3z" class="cls-1" data-name="Path 2054"></path><path id="Rectangle_832" d="M0 0h88v88H0z" class="cls-2" data-name="Rectangle 832"></path></g></g></svg> 